<?xml version="1.0" encoding="UTF-8" standalone="no"?>
<svg
   xmlns:dc="http://purl.org/dc/elements/1.1/"
   xmlns:cc="http://creativecommons.org/ns#"
   xmlns:rdf="http://www.w3.org/1999/02/22-rdf-syntax-ns#"
   xmlns:svg="http://www.w3.org/2000/svg"
   xmlns="http://www.w3.org/2000/svg"
   xmlns:xlink="http://www.w3.org/1999/xlink"
   xmlns:sodipodi="http://sodipodi.sourceforge.net/DTD/sodipodi-0.dtd"
   xmlns:inkscape="http://www.inkscape.org/namespaces/inkscape"
   viewBox="0 0 499.13558 249.69776"
   version="1.1"
   id="svg83"
   sodipodi:docname="logo.svg"
   width="499.13559"
   height="249.69777"
   inkscape:version="0.92.4 (5da689c313, 2019-01-14)">
  <metadata
     id="metadata87">
    <rdf:RDF>
      <cc:Work
         rdf:about="">
        <dc:format>image/svg+xml</dc:format>
        <dc:type
           rdf:resource="http://purl.org/dc/dcmitype/StillImage" />
        <dc:title>Tavola disegno 18 copia</dc:title>
      </cc:Work>
    </rdf:RDF>
  </metadata>
  <sodipodi:namedview
     pagecolor="#ffffff"
     bordercolor="#666666"
     borderopacity="1"
     objecttolerance="10"
     gridtolerance="10"
     guidetolerance="10"
     inkscape:pageopacity="0"
     inkscape:pageshadow="2"
     inkscape:window-width="2560"
     inkscape:window-height="1033"
     id="namedview85"
     showgrid="false"
     scale-x="2"
     inkscape:zoom="0.92549203"
     inkscape:cx="148.34899"
     inkscape:cy="101.88453"
     inkscape:window-x="0"
     inkscape:window-y="26"
     inkscape:window-maximized="1"
     inkscape:current-layer="svg83"
     fit-margin-top="0"
     fit-margin-left="0"
     fit-margin-right="0"
     fit-margin-bottom="0" />
  <defs
     id="defs58">
    <style
       id="style2">.cls-1{fill:#fa58ae;}.cls-2{fill:url(#Sfumatura_senza_nome_201);}.cls-3{fill:url(#Sfumatura_senza_nome_201-2);}.cls-4{fill:url(#Sfumatura_senza_nome_202);}.cls-5{fill:url(#Sfumatura_senza_nome_203);}</style>
    <linearGradient
       id="Sfumatura_senza_nome_201"
       x1="111.05"
       y1="101.57"
       x2="150.63"
       y2="101.57"
       gradientUnits="userSpaceOnUse">
      <stop
         offset="0"
         stop-color="#8e3661"
         id="stop4" />
      <stop
         offset="0.15"
         stop-color="#bd4582"
         id="stop6" />
      <stop
         offset="0.23"
         stop-color="#c54888"
         id="stop8" />
      <stop
         offset="0.44"
         stop-color="#d54d94"
         id="stop10" />
      <stop
         offset="0.56"
         stop-color="#dc4f99"
         id="stop12" />
      <stop
         offset="0.73"
         stop-color="#f055a7"
         id="stop14" />
      <stop
         offset="0.77"
         stop-color="#f557ab"
         id="stop16" />
      <stop
         offset="0.81"
         stop-color="#f858ad"
         id="stop18" />
      <stop
         offset="1"
         stop-color="#fa58ae"
         id="stop20" />
    </linearGradient>
    <linearGradient
       id="Sfumatura_senza_nome_201-2"
       x1="184.97"
       y1="101.89"
       x2="224.56"
       y2="101.89"
       xlink:href="#Sfumatura_senza_nome_201" />
    <linearGradient
       id="Sfumatura_senza_nome_202"
       x1="264.98001"
       y1="79.129997"
       x2="291.51001"
       y2="66.32"
       gradientUnits="userSpaceOnUse">
      <stop
         offset="0"
         stop-color="#8e3661"
         id="stop24" />
      <stop
         offset="0.16"
         stop-color="#bd4582"
         id="stop26" />
      <stop
         offset="0.33"
         stop-color="#cd4a8e"
         id="stop28" />
      <stop
         offset="0.39"
         stop-color="#d54d94"
         id="stop30" />
      <stop
         offset="0.49"
         stop-color="#e1519c"
         id="stop32" />
      <stop
         offset="0.7"
         stop-color="#f557ab"
         id="stop34" />
      <stop
         offset="1"
         stop-color="#fa58ae"
         id="stop36" />
    </linearGradient>
    <linearGradient
       id="Sfumatura_senza_nome_203"
       x1="258.69"
       y1="90.650002"
       x2="312.85999"
       y2="108.87"
       gradientUnits="userSpaceOnUse">
      <stop
         offset="0"
         stop-color="#8e3661"
         id="stop39" />
      <stop
         offset="0.15"
         stop-color="#bd4582"
         id="stop41" />
      <stop
         offset="0.23"
         stop-color="#c54888"
         id="stop43" />
      <stop
         offset="0.44"
         stop-color="#d54d94"
         id="stop45" />
      <stop
         offset="0.56"
         stop-color="#dc4f99"
         id="stop47" />
      <stop
         offset="0.73"
         stop-color="#f055a7"
         id="stop49" />
      <stop
         offset="0.77"
         stop-color="#f557ab"
         id="stop51" />
      <stop
         offset="0.79"
         stop-color="#f858ad"
         id="stop53" />
      <stop
         offset="0.87"
         stop-color="#fa58ae"
         id="stop55" />
    </linearGradient>
    <linearGradient
       inkscape:collect="always"
       xlink:href="#Sfumatura_senza_nome_201"
       id="linearGradient91"
       gradientUnits="userSpaceOnUse"
       x1="111.05"
       y1="101.57"
       x2="150.63"
       y2="101.57" />
  </defs>
  <title
     id="title60">Tavola disegno 18 copia</title>
  <g
     id="loghi"
     transform="matrix(1.5710662,0,0,1.5710662,-26.909681,-10.569657)">
    <path
       class="cls-1"
       d="m 330.49,78.48 a 7.24,7.24 0 0 0 -9.49,3.74 29,29 0 0 1 -3.84,6.37 25.73,25.73 0 0 1 -9.24,7.41 22.34,22.34 0 0 1 -5,1.69 l -0.88,0.18 a 26.31,26.31 0 0 1 -10.41,-0.43 c 0.77,-0.35 1.54,-0.77 2.33,-1.19 A 29.84,29.84 0 0 0 306.13,84.2 c 2.92,-5.67 3.06,-11.69 0.39,-16.52 -2.92,-5.27 -8.57,-8.19 -15.14,-8.49 a 30.06,30.06 0 0 0 -15.77,4 54.26,54.26 0 0 0 -5.25,3.6 l -0.14,0.11 a 26,26 0 0 1 1.45,-4.9 l 4.61,-10.15 2.79,-6.18 13,-28.7 A 7.2573032,7.2573032 0 1 0 278.84,11 l -13.26,29.35 -2.46,5.41 -4.74,10.45 -0.11,0.24 a 38.54,38.54 0 0 0 3.2,36 c 0.65,1 1.39,2.06 2.12,3 v 0.06 c 0.49,0.61 1,1.21 1.49,1.81 a 43.09,43.09 0 0 0 11.1,9.32 43.75,43.75 0 0 0 21.82,6 33.4,33.4 0 0 0 5.44,-0.42 37,37 0 0 0 7.8,-2 39.75,39.75 0 0 0 17.14,-12.7 42.55,42.55 0 0 0 5.85,-9.52 7.23,7.23 0 0 0 -3.74,-9.52 z m -54.58,3.18 a 12,12 0 0 1 2.42,-3.18 16.76,16.76 0 0 1 4.07,-3.06 17.27,17.27 0 0 1 6.87,-2.18 9.88,9.88 0 0 1 2.86,0.15 3,3 0 0 1 2.11,1.08 c 0.35,0.65 0.13,1.92 -0.58,3.31 a 15.88,15.88 0 0 1 -6.5,6.23 18.72,18.72 0 0 1 -3.82,1.6 c -4.13,1.21 -7.4,0.47 -8,-0.67 a 0.69,0.69 0 0 1 -0.11,-0.28 4.79,4.79 0 0 1 0.68,-3 z"
       id="path62"
       inkscape:connector-curvature="0"
       style="fill:#fa58ae" />
    <path
       class="cls-1"
       d="m 68.41,66.07 v 0.2 a 7.25,7.25 0 0 1 -6.72,7.19 l -1.07,0.1 A 23.26,23.26 0 0 0 57.18,74.24 26.82,26.82 0 0 0 39.93,89 l -9.17,19.91 a 6.89,6.89 0 0 1 -6.25,4 h -0.19 a 7.17,7.17 0 0 1 -6.52,-10.2 c 0.59,-1.24 1,-2.08 1,-2.08 l 5.82,-13 3,-6.64 c 0,0 6.3,-17.9 31.36,-21.74 0,0 0.74,-0.08 1.84,-0.17 a 7.06,7.06 0 0 1 7.59,6.99 z"
       id="path64"
       inkscape:connector-curvature="0"
       style="fill:#fa58ae" />
    <path
       class="cls-1"
       d="m 243.61,75.38 a 21,21 0 0 0 -14.3,-14.76 c -6.49,-2.11 -14.16,-1.77 -21.63,0.92 -10.54,3.84 -18.52,11.46 -22.06,20.05 l -3.14,7 -0.07,0.13 -14.64,32.66 -15.49,34.62 a 6.82,6.82 0 0 0 3.76,9.1 7.39,7.39 0 0 0 9.46,-3.63 l 15.55,-34.57 9.08,-20.17 a 22.5,22.5 0 0 0 8.48,5 27.51,27.51 0 0 0 5.08,1.12 35.76,35.76 0 0 0 16.57,-2.06 40.65,40.65 0 0 0 9.49,-4.91 37.44,37.44 0 0 0 8.89,-8.68 c 4.95,-6.88 6.75,-14.81 4.97,-21.82 z M 228.69,88 a 22.48,22.48 0 0 1 -5.59,5.34 28.89,28.89 0 0 1 -6.44,3.34 c -4.95,1.79 -10.08,2.08 -14,0.78 -3.09,-1 -5.2,-2.87 -5.75,-5.11 a 1.61,1.61 0 0 1 -0.07,-0.37 c -0.93,-5 4.93,-12.89 14.47,-16.35 a 24.37,24.37 0 0 1 11.13,-1.43 18.13,18.13 0 0 1 3,0.64 c 3.08,1 5.18,2.87 5.74,5.11 0.56,2.24 -0.4,5.14 -2.49,8.05 z"
       id="path66"
       inkscape:connector-curvature="0"
       style="fill:#fa58ae" />
    <path
       class="cls-1"
       d="M 169.7,75.05 A 21,21 0 0 0 155.39,60.3 c -6.49,-2.13 -14.15,-1.79 -21.63,0.91 -10.54,3.85 -18.52,11.48 -22,20.05 L 78.31,156 a 6.8,6.8 0 0 0 3.77,9.09 7.3,7.3 0 0 0 9.45,-3.64 l 24.69,-55.11 a 22.5,22.5 0 0 0 8.48,5 l 0.28,0.08 c 0.64,0.2 1.3,0.38 2,0.54 0.93,0.21 1.88,0.37 2.84,0.49 a 35.78,35.78 0 0 0 16.58,-2.05 q 0.69,-0.24 1.38,-0.54 c 0.46,-0.17 0.92,-0.37 1.37,-0.58 a 28.09,28.09 0 0 0 2.64,-1.3 c 0.39,-0.19 0.76,-0.41 1.15,-0.64 0.39,-0.23 0.94,-0.53 1.39,-0.83 l 1.13,-0.75 a 3.49,3.49 0 0 0 0.43,-0.28 37.55,37.55 0 0 0 8.89,-8.66 c 4.9,-6.82 6.69,-14.76 4.92,-21.77 z m -14.93,12.6 a 23,23 0 0 1 -5.59,5.35 15.28,15.28 0 0 1 -1.5,1 27,27 0 0 1 -4.94,2.36 c -5,1.79 -10.08,2.08 -14.05,0.78 -3.09,-1 -5.2,-2.87 -5.75,-5.11 0,-0.12 0,-0.25 -0.07,-0.37 A 5.17,5.17 0 0 1 122.8,90 c 0.37,-5 6,-11.66 14.55,-14.76 a 24.2,24.2 0 0 1 11.12,-1.44 16.53,16.53 0 0 1 2.95,0.66 c 3.09,1 5.18,2.85 5.75,5.09 0.57,2.24 -0.3,5.2 -2.4,8.1 z"
       id="path68"
       inkscape:connector-curvature="0"
       style="fill:#fa58ae" />
    <path
       class="cls-1"
       d="M 93.36,69.54 A 11.06,11.06 0 1 1 104.42,58.48 11.08,11.08 0 0 1 93.36,69.54 Z m 0,-16.8 a 5.74,5.74 0 1 0 5.73,5.74 5.74,5.74 0 0 0 -5.73,-5.74 z"
       id="path70"
       inkscape:connector-curvature="0"
       style="fill:#fa58ae" />
    <path
       class="cls-1"
       d="m 84.76,100.78 a 11,11 0 1 1 -11,-11 11.06,11.06 0 0 1 11,11 z"
       id="path72"
       inkscape:connector-curvature="0"
       style="fill:#fa58ae" />
    <path
       class="cls-2"
       d="m 155.81,105.47 a 4,4 0 0 1 -0.43,0.29 l -1.13,0.74 a 15.76,15.76 0 0 1 -1.38,0.83 c -0.39,0.23 -0.77,0.45 -1.16,0.64 a 26.93,26.93 0 0 1 -2.64,1.3 c -0.44,0.21 -0.9,0.4 -1.36,0.58 -0.46,0.18 -0.92,0.37 -1.38,0.53 a 35.72,35.72 0 0 1 -16.56,2.06 26.31,26.31 0 0 1 -2.84,-0.5 c -0.65,-0.16 -1.31,-0.33 -2,-0.53 -0.09,0 -0.19,0 -0.28,-0.09 a 22.5,22.5 0 0 1 -8.48,-5 l 6.55,-15.9 a 4.1,4.1 0 0 0 0.1,1.19 c 0,0.12 0,0.24 0.07,0.37 0.55,2.23 2.66,4.09 5.75,5.1 4,1.3 9.09,1 14,-0.78 a 29.68,29.68 0 0 0 5.01,-2.3 c 0.52,-0.32 1,-0.64 1.51,-1 z"
       id="path74"
       inkscape:connector-curvature="0"
       style="fill:url(#linearGradient91)" />
    <path
       class="cls-3"
       d="m 229.73,105.79 c -0.14,0.11 -0.28,0.2 -0.42,0.29 l -1.14,0.74 a 15.76,15.76 0 0 1 -1.38,0.83 c -0.39,0.24 -0.76,0.45 -1.15,0.64 a 28.09,28.09 0 0 1 -2.64,1.3 c -0.45,0.21 -0.91,0.4 -1.37,0.58 -0.46,0.18 -0.92,0.37 -1.38,0.53 a 35.71,35.71 0 0 1 -16.56,2.06 26.75,26.75 0 0 1 -2.84,-0.5 c -0.65,-0.16 -1.31,-0.33 -1.95,-0.53 -0.09,0 -0.19,0 -0.28,-0.09 a 22.39,22.39 0 0 1 -8.47,-5 l 6.54,-15.9 a 4.1,4.1 0 0 0 0.1,1.19 c 0,0.12 0,0.24 0.07,0.37 0.55,2.23 2.66,4.09 5.75,5.1 4,1.3 9.09,1 14,-0.78 a 29,29 0 0 0 4.93,-2.35 c 0.51,-0.32 1,-0.64 1.5,-1 z"
       id="path76"
       inkscape:connector-curvature="0"
       style="fill:url(#Sfumatura_senza_nome_201-2)" />
    <path
       class="cls-4"
       d="m 292.13,73 a 0.33,0.33 0 0 1 -0.38,0.34 10.57,10.57 0 0 0 -2.43,-0.07 17,17 0 0 0 -6.84,2.15 17.25,17.25 0 0 0 -4.09,3 12.45,12.45 0 0 0 -2.42,3.1 8.35,8.35 0 0 0 -0.59,1.42 4.53,4.53 0 0 0 -0.22,1.21 2.47,2.47 0 0 0 0.17,0.76 c 0,0 0,0.11 0,0.1 0,-0.01 -0.09,-0.09 -0.11,-0.12 a 1.09,1.09 0 0 0 -0.1,-0.11 12.9,12.9 0 0 1 -0.81,-1.13 c -0.24,-0.37 -0.48,-0.76 -0.71,-1.14 -0.23,-0.38 -0.44,-0.79 -0.64,-1.19 -0.2,-0.4 -0.4,-0.81 -0.59,-1.22 -0.19,-0.41 -0.35,-0.83 -0.51,-1.26 -0.16,-0.43 -0.31,-0.85 -0.45,-1.29 -0.14,-0.44 -0.26,-0.88 -0.37,-1.32 -0.11,-0.44 -0.22,-0.9 -0.31,-1.35 -0.09,-0.45 -0.18,-0.91 -0.24,-1.38 -0.06,-0.47 -0.13,-0.93 -0.17,-1.4 -0.04,-0.47 -0.08,-0.95 -0.1,-1.42 -0.02,-0.47 0,-0.81 0,-1.21 0,-0.67 0,-2 0,-2.45 a 0.33,0.33 0 0 1 0.11,-0.25 35.38,35.38 0 0 1 5.34,-3.64 30,30 0 0 1 15.44,-3.94 0.33,0.33 0 0 1 0.31,0.32 z"
       id="path78"
       inkscape:connector-curvature="0"
       style="fill:url(#Sfumatura_senza_nome_202)" />
    <path
       class="cls-5"
       d="m 311.23,110.37 a 37.58,37.58 0 0 1 -7.81,2 35.22,35.22 0 0 1 -5.42,0.4 43.61,43.61 0 0 1 -21.82,-6 c -0.42,-0.24 -0.85,-0.51 -1.27,-0.78 a 43.22,43.22 0 0 1 -9.81,-8.54 c -0.52,-0.59 -1,-1.23 -1.48,-1.83 a 4.91,4.91 0 0 0 1.41,1 c 0.58,0.33 1.16,0.64 1.76,0.92 a 27.39,27.39 0 0 0 3.7,1.47 27,27 0 0 0 2.81,0.74 14.45,14.45 0 0 0 2.84,0.43 30.72,30.72 0 0 0 10.46,-0.86 17.79,17.79 0 0 0 4.91,-1.76 h 0.07 c 0.12,0 0.25,0.06 0.37,0.09 a 25.79,25.79 0 0 0 10,0.34 c 0.3,-0.05 0.58,-0.11 0.88,-0.18 a 22.21,22.21 0 0 0 5,-1.68 z"
       id="path80"
       inkscape:connector-curvature="0"
       style="fill:url(#Sfumatura_senza_nome_203)" />
  </g>
</svg>
